<?xml version="1.0" encoding="UTF-8" standalone="no"?>
<!-- Generator: Adobe Illustrator 15.0.0, SVG Export Plug-In . SVG Version: 6.00 Build 0)  -->

<svg
   xmlns:osb="http://www.openswatchbook.org/uri/2009/osb"
   xmlns:dc="http://purl.org/dc/elements/1.1/"
   xmlns:cc="http://creativecommons.org/ns#"
   xmlns:rdf="http://www.w3.org/1999/02/22-rdf-syntax-ns#"
   xmlns:svg="http://www.w3.org/2000/svg"
   xmlns="http://www.w3.org/2000/svg"
   xmlns:sodipodi="http://sodipodi.sourceforge.net/DTD/sodipodi-0.dtd"
   xmlns:inkscape="http://www.inkscape.org/namespaces/inkscape"
   inkscape:export-filename="/home/lukas/mask-detector/logo-disabled.128.png"
   inkscape:export-xdpi="78.769234"
   inkscape:export-ydpi="78.769234"
   version="1.1"
   id="Ebene_1"
   x="0px"
   y="0px"
   width="156px"
   height="156px"
   viewBox="0 0 156 156"
   enable-background="new 0 0 156 156"
   xml:space="preserve"
   sodipodi:docname="logo-disabled.svg"
   inkscape:version="0.92.1 r15371"><sodipodi:namedview
     pagecolor="#ffffff"
     bordercolor="#666666"
     borderopacity="1"
     objecttolerance="10"
     gridtolerance="10"
     guidetolerance="10"
     inkscape:pageopacity="0"
     inkscape:pageshadow="2"
     inkscape:window-width="2560"
     inkscape:window-height="1381"
     id="namedview14"
     showgrid="false"
     inkscape:zoom="4.2789026"
     inkscape:cx="36.730264"
     inkscape:cy="91.661208"
     inkscape:window-x="0"
     inkscape:window-y="30"
     inkscape:window-maximized="1"
     inkscape:current-layer="Ebene_1" /><metadata
     id="metadata18"><rdf:RDF><cc:Work
         rdf:about=""><dc:format>image/svg+xml</dc:format><dc:type
           rdf:resource="http://purl.org/dc/dcmitype/StillImage" /></cc:Work></rdf:RDF></metadata><defs
     id="defs16"><linearGradient
       osb:paint="solid"
       id="linearGradient4500"><stop
         id="stop4498"
         offset="0"
         style="stop-color:#d4372f;stop-opacity:1;" /></linearGradient></defs><g
     style="fill:#818181;fill-opacity:1;opacity:1"
     id="Ebene_5"><rect
       style="fill:#818181;fill-opacity:1;opacity:1"
       id="rect2"
       height="156.006"
       width="156"
       fill="#818181"
       y="-0.006" /></g><path
     d="m 78.832,65.861 c -42.577,0 -65.75,-22.59 -66,6 1.163,30.728 21.47,28.14 29,26 7.157,-2.033 31.357,-9.361 31.357,-9.361 2.418,-0.967 5.561,-1.209 8.611,-0.125 8.367,2.971 20.537,8.066 29.863,10.176 15.066,3.117 29.117,-2.301 30.17,-26.695 1.258,-29.149 -20.424,-5.995 -63.001,-5.995 z"
     id="path5"
     inkscape:connector-curvature="0"
     style="fill:#ffffff" /><path
     d="m 55.448,81.583 c -10.5,4.498 -20.952,3.875 -21.113,3.758 -7.063,-5.137 -6.995,-13.083 -6.995,-13.083 0.164,0 32.771,4.275 35.103,4.923 0.449,0.125 -2.462,2.461 -6.995,4.402 z"
     id="path7"
     inkscape:connector-curvature="0"
     style="fill:#818181;fill-opacity:1;opacity:1" /><path
     d="m 120.249,85.21 c 0,0 -9.066,1.166 -21.762,-4.275 -1.471,-0.631 -6.9,-3.883 -6.08,-4.051 0.104,-0.021 34.709,-4.541 34.727,-4.755 0,-0.001 1.24,6.063 -6.885,13.081 z"
     id="path9"
     inkscape:connector-curvature="0"
     style="fill:#818181;fill-opacity:1;opacity:1" /></svg>