<?xml version="1.0" encoding="UTF-8" standalone="no"?>
<!-- Generator: Adobe Illustrator 15.0.0, SVG Export Plug-In . SVG Version: 6.00 Build 0)  -->

<svg
   xmlns:osb="http://www.openswatchbook.org/uri/2009/osb"
   xmlns:dc="http://purl.org/dc/elements/1.1/"
   xmlns:cc="http://creativecommons.org/ns#"
   xmlns:rdf="http://www.w3.org/1999/02/22-rdf-syntax-ns#"
   xmlns:svg="http://www.w3.org/2000/svg"
   xmlns="http://www.w3.org/2000/svg"
   xmlns:sodipodi="http://sodipodi.sourceforge.net/DTD/sodipodi-0.dtd"
   xmlns:inkscape="http://www.inkscape.org/namespaces/inkscape"
   inkscape:export-filename="/home/lukas/mask-detector/logo-typo3.128.png"
   inkscape:export-xdpi="78.769234"
   inkscape:export-ydpi="78.769234"
   version="1.1"
   id="Ebene_1"
   x="0px"
   y="0px"
   width="156px"
   height="156px"
   viewBox="0 0 156 156"
   enable-background="new 0 0 156 156"
   xml:space="preserve"
   sodipodi:docname="logo-typo3.svg"
   inkscape:version="0.92.1 r15371"><sodipodi:namedview
     pagecolor="#ffffff"
     bordercolor="#666666"
     borderopacity="1"
     objecttolerance="10"
     gridtolerance="10"
     guidetolerance="10"
     inkscape:pageopacity="0"
     inkscape:pageshadow="2"
     inkscape:window-width="2560"
     inkscape:window-height="1381"
     id="namedview14"
     showgrid="false"
     inkscape:zoom="3.0304487"
     inkscape:cx="39.060074"
     inkscape:cy="51.178855"
     inkscape:window-x="0"
     inkscape:window-y="30"
     inkscape:window-maximized="1"
     inkscape:current-layer="Ebene_1"
     inkscape:snap-page="true"
     inkscape:snap-bbox="true"
     inkscape:bbox-paths="true"
     inkscape:bbox-nodes="true"
     inkscape:snap-bbox-midpoints="true"
     inkscape:snap-bbox-edge-midpoints="true"
     inkscape:snap-intersection-paths="true"
     inkscape:object-paths="true"
     inkscape:snap-smooth-nodes="true"
     inkscape:snap-midpoints="true"
     inkscape:snap-object-midpoints="true"
     inkscape:snap-text-baseline="true"
     inkscape:snap-center="true" /><metadata
     id="metadata18"><rdf:RDF><cc:Work
         rdf:about=""><dc:format>image/svg+xml</dc:format><dc:type
           rdf:resource="http://purl.org/dc/dcmitype/StillImage" /><dc:title></dc:title></cc:Work></rdf:RDF></metadata><defs
     id="defs16"><linearGradient
       osb:paint="solid"
       id="linearGradient4500"><stop
         id="stop4498"
         offset="0"
         style="stop-color:#d4372f;stop-opacity:1;" /></linearGradient></defs><g
     id="g5466"
     transform="matrix(0.58753569,0,0,0.58753569,0,-0.00247479)"><g
       id="Ebene_5"
       style="opacity:1;fill:#818181;fill-opacity:1"><rect
         y="-0.0060000001"
         width="156"
         height="156.006"
         id="rect2"
         style="opacity:1;fill:#818181;fill-opacity:1"
         x="0" /></g><g
       id="g5458"><path
         d="m 78.832,65.861 c -42.577,0 -65.75,-22.59 -66,6 1.163,30.728 21.47,28.14 29,26 7.157,-2.033 31.357,-9.361 31.357,-9.361 2.418,-0.967 5.561,-1.209 8.611,-0.125 8.367,2.971 20.537,8.066 29.863,10.176 15.066,3.117 29.117,-2.301 30.17,-26.695 1.258,-29.149 -20.424,-5.995 -63.001,-5.995 z"
         id="path5"
         inkscape:connector-curvature="0"
         style="fill:#ffffff" /><path
         d="m 55.448,81.583 c -10.5,4.498 -20.952,3.875 -21.113,3.758 -7.063,-5.137 -6.995,-13.083 -6.995,-13.083 0.164,0 32.771,4.275 35.103,4.923 0.449,0.125 -2.462,2.461 -6.995,4.402 z"
         id="path7"
         inkscape:connector-curvature="0"
         style="opacity:1;fill:#818181;fill-opacity:1" /><path
         d="m 120.249,85.21 c 0,0 -9.066,1.166 -21.762,-4.275 -1.471,-0.631 -6.9,-3.883 -6.08,-4.051 0.104,-0.021 34.709,-4.541 34.727,-4.755 0,-0.001 1.24,6.063 -6.885,13.081 z"
         id="path9"
         inkscape:connector-curvature="0"
         style="opacity:1;fill:#818181;fill-opacity:1" /></g></g><g
     transform="matrix(1.0130529,0,0,1.0130529,1.6888545,1.6627988)"
     id="g5413"><path
       d="m 128.03114,120.91486 c -1.50125,0.4425 -2.6975,0.595 -4.2625,0.595 -12.84,0 -31.7,-44.87 -31.7,-59.80375 0,-5.50125 1.30625,-7.335 3.1425,-8.90625 -15.7175,1.8325 -34.58,7.5975 -40.6075,14.9325 -1.30875,1.835 -2.095,4.71625 -2.095,8.3825 0,23.3175 24.8875,76.23375 42.44125,76.23375 8.12,0 21.81625,-13.36 33.08125,-31.43375"
       id="path5775"
       style="fill:#ff8700;fill-opacity:1;fill-rule:nonzero;stroke:none"
       inkscape:connector-curvature="0" /><path
       d="m 119.83539,51.22674 c 16.2425,0 32.4875,2.62 32.4875,11.78875 0,18.60125 -11.78875,41.13125 -17.815,41.13125 -10.74,0 -24.10125,-29.86375 -24.10125,-44.7975 0,-6.81125 2.62,-8.1225 9.42875,-8.1225"
       id="path5779"
       style="fill:#ff8700;fill-opacity:1;fill-rule:nonzero;stroke:none"
       inkscape:connector-curvature="0" /></g></svg>